<svg xmlns="http://www.w3.org/2000/svg" viewBox="0 0 48 32" fill="none">
  <rect width="48" height="32" rx="4" fill="#1A1F71"/>
  <path d="M19.5 21H17L14 11h3l2 7 2-7h2.5l-4 10z" fill="#fff"/>
  <path d="M24 11h2.5v10H24V11z" fill="#fff"/>
  <path d="M31 14c-1 0-1.5.5-1.5 1s.5 1 1.5 1.2c1.5.4 2.5 1 2.5 2.3 0 1.5-1.2 2.5-3 2.5-1 0-2-.3-2.5-.5l.5-2c.5.3 1.2.5 2 .5s1-.3 1-.8-.5-.8-1.5-1.2c-1.5-.5-2.5-1.2-2.5-2.5 0-1.5 1.2-2.5 3-2.5 1 0 1.8.2 2.3.5L32 14.5c-.3-.2-1-.5-1.7-.5h.7z" fill="#fff"/>
  <path d="M35 11l-2 10h2.5l.5-2h2l.5 2H41l-2-10h-4zm1.5 6l.7-3.5.8 3.5h-1.5z" fill="#fff"/>
</svg>
